<?xml version="1.0" encoding="UTF-8"?>
<svg version="1.1" xmlns="http://www.w3.org/2000/svg" width="500" height="500">
<path d="M0 0 C3.73646639 2.29058327 6.34253309 4.90776639 8 9 C8.26171303 11.17886734 8.26171303 11.17886734 8.2784729 13.58111572 C8.28963638 14.49534302 8.30079987 15.40957031 8.31230164 16.35150146 C8.31446182 17.34700012 8.31662201 18.34249878 8.31884766 19.36816406 C8.32889328 20.42213379 8.3389389 21.47610352 8.34928894 22.56201172 C8.38018535 26.04654392 8.39717422 29.53099906 8.4140625 33.015625 C8.43276893 35.43130153 8.45234194 37.8469715 8.4727478 40.26263428 C8.52413035 46.62150199 8.56372342 52.9803909 8.60089111 59.33935547 C8.64089231 65.82785309 8.69200238 72.31626207 8.7421875 78.8046875 C8.83901933 91.53639499 8.92377815 104.2681533 9 117 C9.598125 116.34 10.19625 115.68 10.8125 115 C13 113 13 113 16 113 C16 112.34 16 111.68 16 111 C16.66 111 17.32 111 18 111 C18 110.34 18 109.68 18 109 C21.46927288 106.38034497 25.27609199 104.23696114 29 102 C29.56686523 101.65565918 30.13373047 101.31131836 30.71777344 100.95654297 C43.61892318 93.15441908 56.36256047 89.18790861 71 86 C71.79470703 85.82275391 72.58941406 85.64550781 73.40820312 85.46289062 C88.72682878 82.72700948 105.15756879 84.8532282 120 89 C121.11503906 89.30035156 122.23007812 89.60070312 123.37890625 89.91015625 C131.13579685 92.24632539 138.00289864 95.96925084 145 100 C145.99257813 100.55429688 146.98515625 101.10859375 148.0078125 101.6796875 C154.86971831 105.60915493 154.86971831 105.60915493 156 109 C157.66302666 109.6756956 159.33042612 110.34064783 161 111 C163.67578125 113.09375 163.67578125 113.09375 166.3125 115.5 C167.19550781 116.2940625 168.07851563 117.088125 168.98828125 117.90625 C171 120 171 120 171 122 C171.59941406 122.25394531 172.19882812 122.50789063 172.81640625 122.76953125 C175.25945239 124.14620305 176.32471891 125.41352334 177.9375 127.6875 C178.70900391 128.76644531 178.70900391 128.76644531 179.49609375 129.8671875 C179.99238281 130.57101563 180.48867188 131.27484375 181 132 C181.63615234 132.83917969 181.63615234 132.83917969 182.28515625 133.6953125 C186.12042145 138.80077808 189.07501397 144.33623395 192 150 C192.43441406 150.79664063 192.86882812 151.59328125 193.31640625 152.4140625 C198.98320841 163.60555266 201.23924612 176.67472287 203 189 C191.45 189 179.9 189 168 189 C167.01 184.71 166.02 180.42 165 176 C162.93999913 167.85809179 160.06447065 160.06447065 154 154 C154 153.01 154 152.02 154 151 C153.34 151 152.68 151 152 151 C150.64613064 149.34997172 149.31321858 147.6825613 148 146 C147.34 145.67 146.68 145.34 146 145 C146 144.34 146 143.68 146 143 C145.34 143 144.68 143 144 143 C142.375 141.625 142.375 141.625 141 140 C141 139.34 141 138.68 141 138 C140.49339844 137.77054688 139.98679687 137.54109375 139.46484375 137.3046875 C137.39560042 136.20939864 135.51254889 135.05034893 133.56640625 133.7578125 C125.30616414 128.29587892 117.77444953 124.19765401 108 122 C107.14792969 121.77828125 106.29585937 121.5565625 105.41796875 121.328125 C87.01017531 117.1432503 64.79796065 119.67326861 48.52734375 129.4921875 C39.65979594 135.44043441 32.01056029 142.17198957 26 151 C25.34 151 24.68 151 24 151 C23.34 152.65 22.68 154.3 22 156 C21.34 156 20.68 156 20 156 C19.85691406 157.03833984 19.85691406 157.03833984 19.7109375 158.09765625 C18.57937368 162.7171723 16.08534936 166.60789168 13.7890625 170.74609375 C11.23603744 176.44761985 11.23603744 176.44761985 9 189 C-2.55 189 -14.1 189 -26 189 C-26.06772686 165.78219108 -26.12298758 142.56446217 -26.15543652 119.34657955 C-26.17090374 108.56605937 -26.19199055 97.78560494 -26.22631836 87.00512695 C-26.25622507 77.60859033 -26.27557606 68.21210133 -26.28226548 58.81551844 C-26.28617557 53.84034586 -26.29536192 48.8653095 -26.31719017 43.89018059 C-26.33757535 39.20594044 -26.34382966 34.52189244 -26.33932304 29.83761215 C-26.34014733 28.11994317 -26.34610087 26.40226765 -26.35761642 24.68463707 C-26.37259256 22.33529488 -26.36893529 19.98667351 -26.36076355 17.63731384 C-26.36352893 16.32375884 -26.36629431 15.01020384 -26.36914349 13.65684414 C-25.93927606 9.3984508 -24.96429505 6.78334208 -23 3 C-20.625 1.2578125 -20.625 1.2578125 -18 0.125 C-17.13375 -0.26429687 -16.2675 -0.65359375 -15.375 -1.0546875 C-9.37781665 -3.44172429 -5.89275559 -2.39192723 0 0 Z " fill="#F8F9F9" transform="translate(163,79)"/>
<path d="M0 0 C1.43352212 0.00015908 2.86704998 0.00585132 4.30053711 0.01586914 C5.43041298 0.01799156 5.43041298 0.01799156 6.58311462 0.02015686 C8.99807646 0.02577163 11.41294687 0.03832656 13.82788086 0.05102539 C15.46134307 0.05603849 17.09480672 0.06060173 18.72827148 0.06469727 C22.74067671 0.07574585 26.75301326 0.09302033 30.76538086 0.11352539 C31.30807617 1.21051758 31.85077148 2.30750977 32.40991211 3.43774414 C33.13246056 4.89222478 33.85512282 6.34664889 34.57788086 7.80102539 C34.93430664 8.52225586 35.29073242 9.24348633 35.65795898 9.98657227 C37.19221586 13.06916177 38.73539621 16.06426015 40.52709961 19.00805664 C41.76538086 21.11352539 41.76538086 21.11352539 41.76538086 23.11352539 C42.75538086 23.44352539 43.74538086 23.77352539 44.76538086 24.11352539 C46.37084961 25.67211914 46.37084961 25.67211914 47.95288086 27.55102539 C48.48268555 28.16848633 49.01249023 28.78594727 49.55834961 29.42211914 C50.76538086 31.11352539 50.76538086 31.11352539 50.76538086 33.11352539 C51.52850586 33.40227539 52.29163086 33.69102539 53.07788086 33.98852539 C55.76538086 35.11352539 55.76538086 35.11352539 58.76538086 37.11352539 C58.76538086 37.77352539 58.76538086 38.43352539 58.76538086 39.11352539 C59.42538086 39.11352539 60.08538086 39.11352539 60.76538086 39.11352539 C60.76538086 39.77352539 60.76538086 40.43352539 60.76538086 41.11352539 C61.54913086 41.31977539 62.33288086 41.52602539 63.14038086 41.73852539 C66.28580207 42.93161619 68.53439969 44.18392744 71.32788086 45.98852539 C82.122671 52.5416054 92.97224789 53.79198705 105.30297852 53.68994141 C107.63174825 53.67607679 109.95647877 53.71027678 112.28491211 53.74829102 C126.68269032 53.82322043 138.25204958 50.20360956 150.47241211 42.46899414 C152.76538086 41.11352539 152.76538086 41.11352539 154.76538086 41.11352539 C154.76538086 40.45352539 154.76538086 39.79352539 154.76538086 39.11352539 C156.19897461 37.99243164 156.19897461 37.99243164 158.20288086 36.67602539 C170.35238467 27.80495912 177.79984886 13.53597238 183.76538086 0.11352539 C195.31538086 0.11352539 206.86538086 0.11352539 218.76538086 0.11352539 C217.25626736 12.18643342 213.34324992 21.96429251 206.76538086 32.11352539 C206.04747882 33.35805453 205.3381259 34.60758432 204.64038086 35.86352539 C201.50014264 41.30660497 198.3225426 45.77337136 193.76538086 50.11352539 C192.98227539 50.92756836 192.98227539 50.92756836 192.18334961 51.75805664 C190.74925366 53.24798114 189.26050502 54.68485119 187.76538086 56.11352539 C187.10538086 56.11352539 186.44538086 56.11352539 185.76538086 56.11352539 C185.52432617 56.6974707 185.28327148 57.28141602 185.03491211 57.88305664 C182.48606397 62.36118675 177.82401863 65.06819958 173.76538086 68.11352539 C172.8256543 68.8521582 171.88592773 69.59079102 170.91772461 70.35180664 C146.69214206 88.45066122 116.0176138 91.18636551 86.76538086 88.11352539 C68.86321092 85.49178684 52.07051617 77.0783753 37.76538086 66.11352539 C37.76538086 65.45352539 37.76538086 64.79352539 37.76538086 64.11352539 C37.20463867 63.86989258 36.64389648 63.62625977 36.06616211 63.37524414 C31.36987754 60.79986228 27.65950444 56.74763762 23.76538086 53.11352539 C23.14147461 52.55536133 22.51756836 51.99719727 21.87475586 51.42211914 C13.86681774 43.95677496 7.67504425 34.29131309 3.76538086 24.11352539 C3.27166992 22.9237207 2.77795898 21.73391602 2.26928711 20.50805664 C-3.06275163 7.62390046 -3.06275163 7.62390046 -4.23461914 1.11352539 C-3.23461914 0.11352539 -3.23461914 0.11352539 0 0 Z " fill="#0AA3F6" transform="translate(143.234619140625,303.886474609375)"/>
<path d="M0 0 C-1.32 0.33 -2.64 0.66 -4 1 C-4 1.66 -4 2.32 -4 3 C-4.85464844 3.20496094 -5.70929688 3.40992188 -6.58984375 3.62109375 C-7.69457031 3.89050781 -8.79929687 4.15992188 -9.9375 4.4375 C-11.03964844 4.70433594 -12.14179688 4.97117187 -13.27734375 5.24609375 C-15.89421254 5.72995725 -15.89421254 5.72995725 -17 7 C-19.20650656 7.10012401 -21.41622386 7.1308118 -23.625 7.1328125 C-24.28709473 7.13376923 -24.94918945 7.13472595 -25.63134766 7.13571167 C-27.03352961 7.13639326 -28.4357147 7.13454042 -29.83789062 7.13037109 C-31.99095713 7.12502246 -34.14381502 7.1303167 -36.296875 7.13671875 C-37.65625046 7.13605796 -39.0156258 7.13477679 -40.375 7.1328125 C-41.62023437 7.13168457 -42.86546875 7.13055664 -44.1484375 7.12939453 C-47 7 -47 7 -48 6 C-50.84087552 5.71681146 -53.68165215 5.55149787 -56.53125 5.37890625 C-57.3459375 5.25386719 -58.160625 5.12882812 -59 5 C-59.33 4.34 -59.66 3.68 -60 3 C-60.99 2.67 -61.98 2.34 -63 2 C-63 1.34 -63 0.68 -63 0 C-62.34185303 0.21148682 -61.68370605 0.42297363 -61.00561523 0.64086914 C-52.40326956 3.12146091 -44.30388978 3.49480861 -35.42797852 3.44604492 C-33.06893804 3.43752326 -30.71231947 3.46641963 -28.35351562 3.49804688 C-19.71253434 3.53482953 -12.57224087 2.79512427 -4.40405273 -0.23803711 C-2 -1 -2 -1 0 0 Z " fill="#1B93DA" transform="translate(284,354)"/>
<path d="M0 0 C1.41371563 4.24114688 -0.07198767 6.48873877 -1.74609375 10.49609375 C-3.41614578 13.83099515 -5.54160412 16.20938846 -8 19 C-8.70514846 21.14733927 -8.70514846 21.14733927 -9 23 C-9.66 23.66 -10.32 24.32 -11 25 C-12.32 25 -13.64 25 -15 25 C-15 26.32 -15 27.64 -15 29 C-17.94278039 31.28882919 -20.46117205 32.82039068 -24 34 C-24.495 36.475 -24.495 36.475 -25 39 C-28.96 38.505 -28.96 38.505 -33 38 C-28.25 34 -28.25 34 -26 34 C-26 33.34 -26 32.68 -26 32 C-24.56640625 30.87890625 -24.56640625 30.87890625 -22.5625 29.5625 C-12.67363521 22.34205904 -5.43339342 10.86678685 0 0 Z " fill="#1387C7" transform="translate(324,311)"/>
<path d="M0 0 C1.43352212 0.00015908 2.86704998 0.00585132 4.30053711 0.01586914 C5.43041298 0.01799156 5.43041298 0.01799156 6.58311462 0.02015686 C8.99807646 0.02577163 11.41294687 0.03832656 13.82788086 0.05102539 C15.46134307 0.05603849 17.09480672 0.06060173 18.72827148 0.06469727 C22.74067671 0.07574585 26.75301326 0.09302033 30.76538086 0.11352539 C31.75538086 3.08352539 32.74538086 6.05352539 33.76538086 9.11352539 C30.76538086 8.11352539 30.76538086 8.11352539 28.76538086 5.11352539 C28.76538086 3.79352539 28.76538086 2.47352539 28.76538086 1.11352539 C24.32762411 1.25213565 19.89025309 1.40064404 15.45288086 1.55102539 C14.19024414 1.5903418 12.92760742 1.6296582 11.62670898 1.67016602 C9.81396484 1.73300781 9.81396484 1.73300781 7.96459961 1.79711914 C6.29143677 1.85210571 6.29143677 1.85210571 4.58447266 1.90820312 C1.68664515 2.00283748 1.68664515 2.00283748 -1.23461914 3.11352539 C-0.90461914 5.09352539 -0.57461914 7.07352539 -0.23461914 9.11352539 C0.42538086 9.11352539 1.08538086 9.11352539 1.76538086 9.11352539 C1.76538086 11.42352539 1.76538086 13.73352539 1.76538086 16.11352539 C2.42538086 16.44352539 3.08538086 16.77352539 3.76538086 17.11352539 C5.34086769 19.73933677 5.76538086 20.98452326 5.76538086 24.11352539 C6.42538086 24.11352539 7.08538086 24.11352539 7.76538086 24.11352539 C7.96069336 26.16430664 8.15600586 28.21508789 8.35131836 30.26586914 C8.48795898 30.8755957 8.62459961 31.48532227 8.76538086 32.11352539 C9.42538086 32.44352539 10.08538086 32.77352539 10.76538086 33.11352539 C9.77538086 33.11352539 8.78538086 33.11352539 7.76538086 33.11352539 C-2.54211596 10.51632082 -2.54211596 10.51632082 -4.23461914 1.11352539 C-3.23461914 0.11352539 -3.23461914 0.11352539 0 0 Z " fill="#127AB3" transform="translate(143.234619140625,303.886474609375)"/>
<path d="M0 0 C0.33 0 0.66 0 1 0 C1.00423194 0.5547595 1.00846388 1.109519 1.01282406 1.6810894 C1.11604263 15.16768473 1.2247297 28.65422639 1.33933926 42.1407299 C1.39459682 48.6626501 1.44802134 55.18457475 1.49731445 61.70654297 C1.54491622 67.9959324 1.59725746 74.28526588 1.65294075 80.57458878 C1.67338332 82.97883849 1.69209319 85.38310356 1.70907402 87.78738022 C1.73307596 91.14460575 1.76313626 94.50172478 1.79467773 97.85888672 C1.8004332 98.86157593 1.80618866 99.86426514 1.81211853 100.89733887 C1.82190735 101.80881683 1.83169617 102.7202948 1.84178162 103.65939331 C1.84823417 104.45397886 1.85468672 105.24856441 1.8613348 106.06722832 C1.88223837 108.0828614 1.88223837 108.0828614 3 110 C2.34 110 1.68 110 1 110 C0.505 110.99 0.505 110.99 0 112 C-0.95158103 109.1452569 -1.11288008 107.4547546 -1.08229065 104.50117493 C-1.07525116 103.57990814 -1.06821167 102.65864136 -1.06095886 101.7094574 C-1.04153984 100.19679039 -1.04153984 100.19679039 -1.02172852 98.65356445 C-1.01212097 97.58998718 -1.00251343 96.52640991 -0.99261475 95.43060303 C-0.95958118 91.90809601 -0.91926527 88.38571133 -0.87890625 84.86328125 C-0.8546094 82.42376642 -0.83076563 79.98424703 -0.80735779 77.54472351 C-0.74447359 71.11834536 -0.67541915 64.69204762 -0.60510254 58.26574707 C-0.53445828 51.71040514 -0.46961793 45.15500613 -0.40429688 38.59960938 C-0.27522864 25.73301049 -0.13984232 12.86648607 0 0 Z " fill="#8D96A1" transform="translate(170,88)"/>
<path d="M0 0 C1.65 0 3.3 0 5 0 C-1.78041887 7.22369081 -11.45183785 14.04461648 -21 17 C-21.99 17 -22.98 17 -24 17 C-24 16.34 -24 15.68 -24 15 C-22.36935236 13.94228261 -20.69719127 12.94726954 -19 12 C-18.01 11.34 -17.02 10.68 -16 10 C-14.34385343 9.61781233 -12.67542976 9.28604898 -11 9 C-9.66457061 8.67516582 -8.33038449 8.3449145 -7 8 C-7 7.01 -7 6.02 -7 5 C-6.34 5 -5.68 5 -5 5 C-5 4.34 -5 3.68 -5 3 C-3.68 3 -2.36 3 -1 3 C-0.67 2.01 -0.34 1.02 0 0 Z " fill="#157EBE" transform="translate(316,368)"/>
<path d="M0 0 C-6.81364734 4.54243156 -14.02990817 5.71844861 -22 6.75 C-22.94617188 6.88792969 -23.89234375 7.02585937 -24.8671875 7.16796875 C-30.51706017 7.92702367 -35.38072165 7.98072311 -41 7 C-41 6.67 -41 6.34 -41 6 C-36.38 6 -31.76 6 -27 6 C-27 5.34 -27 4.68 -27 4 C-21.06 3.67 -15.12 3.34 -9 3 C-9 2.34 -9 1.68 -9 1 C-6.04335481 -0.4783226 -3.25770263 -0.06032783 0 0 Z " fill="#1889D5" transform="translate(292,385)"/>
<path d="M0 0 C-1.32 0.33 -2.64 0.66 -4 1 C-4 1.66 -4 2.32 -4 3 C-8.81132698 4.91261829 -13.12969327 5.26715165 -18.2421875 5.1953125 C-19.01055939 5.1924826 -19.77893127 5.18965271 -20.57058716 5.18673706 C-23.00555521 5.17561311 -25.44014462 5.1505236 -27.875 5.125 C-29.53384882 5.11496011 -31.19270346 5.10583603 -32.8515625 5.09765625 C-36.90118579 5.07569937 -40.95052887 5.04122406 -45 5 C-45 4.67 -45 4.34 -45 4 C-44.15928955 3.9906543 -43.3185791 3.98130859 -42.45239258 3.97167969 C-39.26670081 3.92708481 -36.08189267 3.86521994 -32.89672852 3.79248047 C-31.53063746 3.76463698 -30.16439626 3.74324483 -28.7980957 3.72900391 C-20.11370383 3.63318494 -12.67498525 2.71137502 -4.4831543 -0.24902344 C-2 -1 -2 -1 0 0 Z " fill="#0D6596" transform="translate(284,354)"/>
<path d="M0 0 C11.55 0 23.1 0 35 0 C34.67 2.64 34.34 5.28 34 8 C32 5 32 5 32 1 C22.1 1.33 12.2 1.66 2 2 C1.34 3.65 0.68 5.3 0 7 C-0.66 7 -1.32 7 -2 7 C-1.34 4.69 -0.68 2.38 0 0 Z " fill="#2287C5" transform="translate(327,304)"/>
<path d="M0 0 C11.22 0 22.44 0 34 0 C34.99 2.97 35.98 5.94 37 9 C34 8 34 8 32 5 C32 3.68 32 2.36 32 1 C21.44 1 10.88 1 0 1 C0 0.67 0 0.34 0 0 Z " fill="#2C9EDF" transform="translate(140,304)"/>
<path d="M0 0 C0.99 0.33 1.98 0.66 3 1 C2.67 3.31 2.34 5.62 2 8 C13.22 7.67 24.44 7.34 36 7 C36 7.66 36 8.32 36 9 C24.45 9 12.9 9 1 9 C0.67 6.03 0.34 3.06 0 0 Z " fill="#929AA3" transform="translate(330,259)"/>
<path d="M0 0 C3.84853751 1.41721921 5.90850502 2.36740346 8 6 C8 6.99 8 7.98 8 9 C8.99 9 9.98 9 11 9 C11 10.65 11 12.3 11 14 C6.45924219 9.85989729 3.28157862 5.17609824 0 0 Z " fill="#147DB4" transform="translate(153,339)"/>
<path d="M0 0 C6.00683945 0.52233386 11.69730333 2.05405741 17 5 C17.33 5.99 17.66 6.98 18 8 C11.5811453 6.26375242 5.86215164 4.14819255 0 1 C0 0.67 0 0.34 0 0 Z " fill="#1376B4" transform="translate(198,380)"/>
<path d="M0 0 C1.98 0 3.96 0 6 0 C5.67 0.66 5.34 1.32 5 2 C4.34 2 3.68 2 3 2 C3.33 3.98 3.66 5.96 4 8 C4.66 8 5.32 8 6 8 C6 9.98 6 11.96 6 14 C5.34 14 4.68 14 4 14 C2.68 9.38 1.36 4.76 0 0 Z " fill="#1685C0" transform="translate(139,305)"/>
<path d="M0 0 C2.72998676 0.11437651 5.4584582 0.24111406 8.1875 0.375 C8.95642578 0.4059375 9.72535156 0.436875 10.51757812 0.46875 C14.73897711 0.68616111 18.14072328 1.09743072 22 3 C22 3.33 22 3.66 22 4 C14.37404682 4.45755719 7.3970146 2.74536299 0 1 C0 0.67 0 0.34 0 0 Z " fill="#1777B0" transform="translate(216,388)"/>
<path d="M0 0 C4.92101242 2.0085765 9.42543762 4.29260594 14 7 C13.67 7.66 13.34 8.32 13 9 C8.33138019 7.39516194 3.90741833 5.02509806 0 2 C0 1.34 0 0.68 0 0 Z " fill="#167DB6" transform="translate(206,346)"/>
<path d="M0 0 C1.12864571 2.82503443 0.99492545 4.01633704 0.07421875 6.98046875 C-0.38339844 8.03878906 -0.84101563 9.09710938 -1.3125 10.1875 C-1.76238281 11.25355469 -2.21226562 12.31960938 -2.67578125 13.41796875 C-4 16 -4 16 -6 17 C-6 15.35 -6 13.7 -6 12 C-5.34 12 -4.68 12 -4 12 C-4 10.35 -4 8.7 -4 7 C-3.34 7 -2.68 7 -2 7 C-1.855625 6.401875 -1.71125 5.80375 -1.5625 5.1875 C-1.1127561 3.43849596 -0.57107659 1.71322977 0 0 Z " fill="#167DBB" transform="translate(359,312)"/>
<path d="M0 0 C0 0.66 0 1.32 0 2 C-0.66 2 -1.32 2 -2 2 C-2 2.66 -2 3.32 -2 4 C-2.825 4.474375 -3.65 4.94875 -4.5 5.4375 C-5.7375 6.2109375 -5.7375 6.2109375 -7 7 C-7 7.99 -7 8.98 -7 10 C-8.32 10.33 -9.64 10.66 -11 11 C-11 9.35 -11 7.7 -11 6 C-10.01 5.67 -9.02 5.34 -8 5 C-6.64631404 3.68733482 -5.31200404 2.35432675 -4 1 C-2 0 -2 0 0 0 Z " fill="#1687CE" transform="translate(291,349)"/>
<path d="M0 0 C0.99 0.495 0.99 0.495 2 1 C2 1.66 2 2.32 2 3 C2.763125 3.28875 3.52625 3.5775 4.3125 3.875 C7 5 7 5 10 7 C9.67 7.66 9.34 8.32 9 9 C8.01 9 7.02 9 6 9 C6 8.34 6 7.68 6 7 C3.03 6.505 3.03 6.505 0 6 C0 4.02 0 2.04 0 0 Z " fill="#107EBB" transform="translate(192,334)"/>
<path d="M0 0 C0.66 0 1.32 0 2 0 C1.34097701 3.57040303 -0.16229158 6.17732255 -2.0625 9.25 C-2.61035156 10.14203125 -3.15820312 11.0340625 -3.72265625 11.953125 C-4.14417969 12.62859375 -4.56570313 13.3040625 -5 14 C-5.33 12.68 -5.66 11.36 -6 10 C-5.34 10 -4.68 10 -4 10 C-3.855625 9.4225 -3.71125 8.845 -3.5625 8.25 C-3.04166667 6.16666667 -2.52083333 4.08333333 -2 2 C-1.34 2 -0.68 2 0 2 C0 1.34 0 0.68 0 0 Z " fill="#187EBA" transform="translate(351,329)"/>
<path d="M0 0 C2.31 0 4.62 0 7 0 C7 0.66 7 1.32 7 2 C5.56570999 2.67354499 4.12742943 3.33859701 2.6875 4 C1.48673828 4.556875 1.48673828 4.556875 0.26171875 5.125 C-2 6 -2 6 -5 6 C-5 5.34 -5 4.68 -5 4 C-3.35178756 2.96986723 -1.68496298 1.96885372 0 1 C0 0.67 0 0.34 0 0 Z " fill="#1371A9" transform="translate(297,379)"/>
<path d="M0 0 C-1.35021826 4.41889613 -3.26115668 6.34345343 -7 9 C-7 6.69 -7 4.38 -7 2 C-2.25 0 -2.25 0 0 0 Z " fill="#1686C2" transform="translate(344,344)"/>
<path d="M0 0 C1 3 1 3 -0.1875 6.5625 C-1.94478806 9.8952877 -2.50915788 10.91663521 -6 12 C-4.43358249 7.69235185 -2.31663844 3.93828536 0 0 Z " fill="#147CB6" transform="translate(324,311)"/>
<path d="M0 0 C1.65 0 3.3 0 5 0 C3.02 2.31 1.04 4.62 -1 7 C-1.66 5.68 -2.32 4.36 -3 3 C-2.01 2.67 -1.02 2.34 0 2 C0 1.34 0 0.68 0 0 Z " fill="#1585C6" transform="translate(332,353)"/>
<path d="M0 0 C2.74277578 3.19990508 4.6302836 6.00499382 6 10 C4.02 9.01 2.04 8.02 0 7 C0 4.69 0 2.38 0 0 Z " fill="#1470B1" transform="translate(177,313)"/>
<path d="M0 0 C-2.42044844 2.2342601 -3.58891246 2.98250691 -6.9375 3.125 C-7.948125 3.08375 -8.95875 3.0425 -10 3 C-11.67453799 3.291224 -13.34550895 3.61070799 -15 4 C-10.85384107 0.35138015 -5.42017988 -2.16807195 0 0 Z " fill="#B3B9C4" transform="translate(221,170)"/>
<path d="M0 0 C-2.41407698 1.60938465 -4.34044437 2.65490738 -7 3.6875 C-8.0209375 4.09548828 -8.0209375 4.09548828 -9.0625 4.51171875 C-11 5 -11 5 -14 4 C-12.35 3.67 -10.7 3.34 -9 3 C-9 2.34 -9 1.68 -9 1 C-6.04335481 -0.4783226 -3.25770263 -0.06032783 0 0 Z " fill="#116AA4" transform="translate(292,385)"/>
<path d="M0 0 C-1.50223584 4.20626034 -4.28550034 5.73900021 -8 8 C-8 7.01 -8 6.02 -8 5 C-7.34 5 -6.68 5 -6 5 C-6 4.01 -6 3.02 -6 2 C-2.25 0 -2.25 0 0 0 Z " fill="#1481BB" transform="translate(329,360)"/>
<path d="M0 0 C0.66 0.28875 1.32 0.5775 2 0.875 C5.62499465 2.23437299 9.23346693 3.10624639 13 4 C9.52487282 5.15837573 7.86329714 4.77265943 4.3125 4.0625 C3.31863281 3.86785156 2.32476562 3.67320312 1.30078125 3.47265625 C0.54152344 3.31667969 -0.21773438 3.16070312 -1 3 C-0.67 2.01 -0.34 1.02 0 0 Z " fill="#B6BEC6" transform="translate(261,196)"/>
<path d="M0 0 C0.33 0 0.66 0 1 0 C1.06058594 1.05960938 1.12117187 2.11921875 1.18359375 3.2109375 C1.26800127 4.59897221 1.35264917 5.98699232 1.4375 7.375 C1.47681641 8.07367188 1.51613281 8.77234375 1.55664062 9.4921875 C1.74280134 13.37360492 1.74280134 13.37360492 3 17 C2.34 17 1.68 17 1 17 C0.67 17.66 0.34 18.32 0 19 C-1.27603607 15.17189179 -0.86283987 11.76524893 -0.5625 7.8125 C-0.51029297 7.06291016 -0.45808594 6.31332031 -0.40429688 5.54101562 C-0.27486216 3.69362918 -0.13813482 1.84675629 0 0 Z " fill="#A1A9B0" transform="translate(170,181)"/>
<path d="M0 0 C2.50298434 2.93828597 3.46930939 5.17902761 4 9 C1 8 1 8 -1 5 C-0.625 2.3125 -0.625 2.3125 0 0 Z " fill="#1782C2" transform="translate(173,304)"/>
<path d="M0 0 C6.75 0.75 6.75 0.75 9 3 C7.02 3.33 5.04 3.66 3 4 C2.01 2.68 1.02 1.36 0 0 Z " fill="#B1BAC5" transform="translate(288,171)"/>
<path d="M0 0 C2.375 0.1875 2.375 0.1875 5 1 C6.3125 3.5625 6.3125 3.5625 7 6 C6.34 6 5.68 6 5 6 C5 5.34 5 4.68 5 4 C4.360625 3.71125 3.72125 3.4225 3.0625 3.125 C1 2 1 2 0 0 Z " fill="#1479AE" transform="translate(176,364)"/>
</svg>
